# xmcd
#
# Track frame offsets:
#	150
#	12372
#	24856
#	40931
#	54596
#	68244
#	82692
#	93750
#	107464
#	121873
#	133774
#	151326
#	167221
#	182224
#
# Disc length: 2536 seconds
#
# Revision: 1
# Processed by: cddbd v1.5.2PL0 Copyright (c) Steve Scherf et al.
# Submitted via: EasyCDDAExtractor 11.9.9.666
#
DISCID=a409e60e
DTITLE=Stranger Creek - The Winner
DYEAR=2008
DGENRE=Bluegrass
TTITLE0=Gordon's Boogie
TTITLE1=Hot Flash in a Cold Winter
TTITLE2=Demons
TTITLE3=Half
TTITLE4=It's So Lonesome in the Saddle Since My Horse Died
TTITLE5=Heaven Only Knows
TTITLE6=The Winner
TTITLE7=The Geese
TTITLE8=Marle
TTITLE9=You're My Northern Star
TTITLE10=The Nodaway River
TTITLE11=A Roller Coaster Ride
TTITLE12=Tonganoxie
TTITLE13=Wash Board Rag
EXTD=
EXTT0=
EXTT1=
EXTT2=
EXTT3=
EXTT4=
EXTT5=
EXTT6=
EXTT7=
EXTT8=
EXTT9=
EXTT10=
EXTT11=
EXTT12=
EXTT13=
PLAYORDER=
